<?xml version="1.0" encoding="UTF-8"?>
<svg id="_레이어_1" data-name="레이어 1" xmlns="http://www.w3.org/2000/svg" viewBox="0 0 36 36">
  <defs>
    <style>
      .cls-1 {
        fill: none;
      }
    </style>
  </defs>
  <path d="m28.93,16.58c-.05.05-.11.09-.18.12-.07.03-.14.04-.22.04s-.15-.01-.22-.04c-.07-.03-.13-.07-.18-.12l-9.16-9.16v23.39c0,.15-.06.29-.16.4-.11.11-.25.16-.4.16s-.29-.06-.4-.16c-.11-.11-.16-.25-.16-.4V7.42l-9.16,9.16c-.05.05-.11.09-.18.12-.07.03-.14.04-.22.04s-.15-.01-.22-.04c-.07-.03-.13-.07-.18-.12-.05-.05-.09-.11-.12-.18-.03-.07-.04-.14-.04-.22s.01-.15.04-.22c.03-.07.07-.13.12-.18l10.13-10.13c.05-.05.11-.09.18-.12.07-.03.14-.04.22-.04s.15.01.22.04c.07.03.13.07.18.12l10.13,10.13c.05.05.09.11.12.18.03.07.04.14.04.22s-.01.15-.04.22c-.03.07-.07.13-.12.18Z"/>
  <rect class="cls-1" width="36" height="36"/>
</svg>