<?xml version="1.0" encoding="UTF-8"?>
<svg id="_레이어_1" data-name="레이어 1" xmlns="http://www.w3.org/2000/svg" viewBox="0 0 24 24">
  <defs>
    <style>
      .cls-1 {
        fill: #1aa889;
        fill-rule: evenodd;
      }

      .cls-2 {
        fill: none;
      }
    </style>
  </defs>
  <rect class="cls-2" width="24" height="24"/>
  <path class="cls-1" d="m22,12c0,5.52-4.48,10-10,10S2,17.52,2,12,6.48,2,12,2s10,4.48,10,10Zm-5.97-3.03c.14.14.22.33.22.53s-.08.39-.22.53l-5,5c-.14.14-.33.22-.53.22s-.39-.08-.53-.22l-2-2c-.07-.07-.13-.15-.17-.24-.04-.09-.06-.19-.06-.29,0-.1.02-.2.05-.29.04-.09.09-.18.17-.25.07-.07.16-.13.25-.17.09-.04.19-.06.29-.05.1,0,.2.02.29.06.09.04.17.1.24.17l1.47,1.47,2.23-2.24,2.24-2.23c.14-.14.33-.22.53-.22s.39.08.53.22Z"/>
</svg>