<?xml version="1.0" encoding="UTF-8"?>
<svg id="_레이어_1" data-name="레이어 1" xmlns="http://www.w3.org/2000/svg" viewBox="0 0 48 24">
  <defs>
    <style>
      .cls-1, .cls-2, .cls-3, .cls-4, .cls-5 {
        fill: none;
      }

      .cls-1, .cls-2, .cls-3, .cls-5 {
        stroke: #000;
        stroke-width: 1.5px;
      }

      .cls-2 {
        opacity: .6;
      }

      .cls-2, .cls-3 {
        isolation: isolate;
      }

      .cls-2, .cls-3, .cls-5 {
        stroke-linecap: round;
        stroke-linejoin: round;
      }

      .cls-3 {
        opacity: .5;
      }
    </style>
  </defs>
  <g>
    <g>
      <path class="cls-1" d="m3.56,14.26c-.72-3.35-1.08-5.03-.18-6.14.9-1.11,2.62-1.11,6.04-1.11h5.16c3.43,0,5.14,0,6.04,1.11.9,1.11.54,2.79-.18,6.14l-.43,2c-.49,2.27-.73,3.41-1.56,4.08-.82.67-1.99.67-4.31.67h-4.3c-2.32,0-3.49,0-4.31-.67-.83-.67-1.07-1.8-1.56-4.08l-.43-2Z"/>
      <path class="cls-3" d="m8,12h8m-6,3h4"/>
      <path class="cls-2" d="m18,9l-3-6m-9,6l3-6"/>
    </g>
    <rect class="cls-4" width="24" height="24"/>
  </g>
  <g>
    <rect class="cls-4" x="24" width="24" height="24"/>
    <path class="cls-5" d="m43.1,13.15l-5.66,5.66c-.38.37-.88.59-1.41.59s-1.04-.21-1.41-.59l-5.66-5.66c-.47-.46-.84-1.01-1.09-1.62-.25-.61-.39-1.26-.39-1.92,0-.66.13-1.31.38-1.92.25-.61.62-1.16,1.09-1.63.47-.47,1.02-.83,1.63-1.09.61-.25,1.26-.38,1.92-.38.66,0,1.31.13,1.92.39.61.25,1.16.63,1.62,1.09.94-.92,2.21-1.43,3.52-1.42,1.32,0,2.57.53,3.5,1.46.93.93,1.46,2.19,1.46,3.5,0,1.32-.5,2.58-1.42,3.52Z"/>
  </g>
</svg>