<?xml version="1.0" encoding="UTF-8"?>
<svg id="_레이어_1" data-name="레이어 1" xmlns="http://www.w3.org/2000/svg" viewBox="0 0 24 24">
  <defs>
    <style>
      .cls-1, .cls-2 {
        fill: none;
      }

      .cls-2 {
        isolation: isolate;
        opacity: .5;
        stroke: #000;
        stroke-width: 1.5px;
      }
    </style>
  </defs>
  <g>
    <path d="m8,14.89c.03.1.07.18.13.26.06.08.14.14.22.19.09.05.18.08.28.09.1.01.2,0,.29-.02.09-.03.18-.07.26-.13.08-.06.14-.14.19-.22.05-.09.08-.18.09-.28.01-.1,0-.2-.02-.29l-1.45.4ZM3.7,4.35c-.1-.03-.2-.04-.29-.03-.1.01-.19.04-.28.09-.09.05-.16.11-.22.19-.06.08-.11.17-.13.26-.03.1-.03.2-.02.29.01.1.04.19.09.28.05.09.12.16.19.22.08.06.17.1.26.13l.4-1.45Zm16.99,11c.1-.02.19-.06.27-.12.08-.06.15-.13.2-.22.05-.09.09-.18.1-.28.01-.1,0-.2-.02-.3-.03-.1-.07-.19-.13-.27-.06-.08-.14-.15-.22-.2-.09-.05-.18-.08-.28-.09-.1-.01-.2,0-.3.02l.38,1.45Zm-9.99,1.83c.31,1.12-.37,2.3-1.57,2.62l.38,1.45c1.98-.51,3.18-2.5,2.64-4.47l-1.45.4Zm-1.57,2.62c-1.21.32-2.43-.39-2.74-1.52l-1.45.4c.54,1.95,2.59,3.08,4.56,2.57l-.38-1.45Zm-2.74-1.52c-.31-1.12.37-2.3,1.57-2.62l-.38-1.45c-1.98.51-3.19,2.5-2.64,4.47l1.45-.4Zm1.57-2.62c1.21-.31,2.43.39,2.74,1.52l1.45-.4c-.54-1.95-2.59-3.08-4.56-2.57l.38,1.45Zm1.49-1.18l-2.15-7.79-1.45.4,2.15,7.79,1.45-.4ZM5.4,4.82l-1.7-.47-.4,1.45,1.7.47.4-1.45Zm1.9,1.88c-.13-.45-.37-.86-.7-1.19-.33-.33-.74-.57-1.2-.69l-.4,1.45c.42.12.74.44.85.83l1.45-.4Zm4.31,11.01l9.08-2.36-.38-1.45-9.08,2.36.38,1.45Z"/>
    <path class="cls-2" d="m10.06,8.36c-.48-1.76-.73-2.63-.31-3.32.41-.69,1.32-.93,3.13-1.4l1.92-.5c1.81-.47,2.72-.71,3.43-.31.71.4.96,1.28,1.44,3.03l.51,1.86c.49,1.76.73,2.63.32,3.32-.41.69-1.32.93-3.13,1.4l-1.92.5c-1.81.47-2.72.7-3.43.31-.71-.4-.95-1.28-1.44-3.03l-.51-1.86Z"/>
  </g>
  <rect class="cls-1" width="24" height="24"/>
</svg>