<?xml version="1.0" encoding="UTF-8"?>
<svg id="_레이어_1" data-name="레이어 1" xmlns="http://www.w3.org/2000/svg" viewBox="0 0 24 24">
  <defs>
    <style>
      .cls-1 {
        fill-rule: evenodd;
      }

      .cls-1, .cls-2 {
        fill: #757575;
      }

      .cls-3 {
        fill: none;
      }
    </style>
  </defs>
  <rect class="cls-3" width="24" height="24"/>
  <g>
    <path class="cls-2" d="m16.01,10.04c.07-.07.13-.15.17-.24.04-.09.06-.19.06-.29,0-.1-.02-.2-.05-.29-.04-.09-.09-.18-.17-.25-.07-.07-.16-.13-.25-.17s-.19-.06-.29-.05c-.1,0-.2.02-.29.06-.09.04-.17.1-.24.17l-4.47,4.47-1.47-1.47c-.14-.13-.33-.2-.52-.2-.19,0-.38.08-.52.22-.14.14-.22.32-.22.52,0,.19.07.38.2.52l2,2c.14.14.33.22.53.22s.39-.08.53-.22l5-5Z"/>
    <path class="cls-1" d="m12,1.25C6.06,1.25,1.25,6.06,1.25,12s4.81,10.75,10.75,10.75,10.75-4.81,10.75-10.75S17.94,1.25,12,1.25ZM2.75,12c0-2.45.97-4.81,2.71-6.54,1.73-1.73,4.09-2.71,6.54-2.71s4.81.97,6.54,2.71c1.73,1.73,2.71,4.09,2.71,6.54s-.97,4.81-2.71,6.54c-1.73,1.73-4.09,2.71-6.54,2.71s-4.81-.97-6.54-2.71c-1.73-1.73-2.71-4.09-2.71-6.54Z"/>
  </g>
</svg>