<?xml version="1.0" encoding="UTF-8"?>
<svg id="_레이어_1" data-name="레이어 1" xmlns="http://www.w3.org/2000/svg" viewBox="0 0 48 48">
  <defs>
    <style>
      .cls-1 {
        fill: none;
      }
    </style>
  </defs>
  <path d="m31.12,13.5c0,.3-.12.58-.33.8-.21.21-.5.33-.8.33h-12c-.3,0-.58-.12-.8-.33-.21-.21-.33-.5-.33-.8s.12-.58.33-.8c.21-.21.5-.33.8-.33h12c.3,0,.58.12.8.33.21.21.33.5.33.8Zm-1.12,4.88h-12c-.3,0-.58.12-.8.33s-.33.5-.33.8.12.58.33.8.5.33.8.33h12c.3,0,.58-.12.8-.33s.33-.5.33-.8-.12-.58-.33-.8-.5-.33-.8-.33Zm8.62-10.88v33c0,.7-.28,1.36-.77,1.86-.49.49-1.16.77-1.86.77H12c-.7,0-1.36-.28-1.86-.77-.49-.49-.77-1.16-.77-1.86V7.5c0-.7.28-1.36.77-1.86.49-.49,1.16-.77,1.86-.77h24c.7,0,1.36.28,1.86.77.49.49.77,1.16.77,1.86Zm-2.25,0c0-.1-.04-.19-.11-.27-.07-.07-.17-.11-.27-.11H12c-.1,0-.19.04-.27.11-.07.07-.11.17-.11.27v33c0,.1.04.19.11.27.07.07.17.11.27.11h24c.1,0,.19-.04.27-.11.07-.07.11-.17.11-.27V7.5Zm-12.38,24.38c-.37,0-.73.11-1.04.32-.31.21-.55.5-.69.84-.14.34-.18.72-.11,1.08.07.36.25.7.51.96.26.26.6.44.96.51.36.07.74.04,1.08-.11s.64-.38.84-.69.32-.67.32-1.04c0-.5-.2-.97-.55-1.33-.35-.35-.83-.55-1.33-.55Z"/>
  <rect class="cls-1" width="48" height="48"/>
  <rect class="cls-1" width="48" height="48"/>
</svg>