<?xml version="1.0" encoding="UTF-8"?>
<svg id="_레이어_1" data-name="레이어 1" xmlns="http://www.w3.org/2000/svg" viewBox="0 0 48 48">
  <defs>
    <style>
      .cls-1 {
        stroke-linecap: round;
      }

      .cls-1, .cls-2, .cls-3 {
        fill: none;
      }

      .cls-1, .cls-3 {
        stroke: #000;
        stroke-width: 2px;
      }
    </style>
  </defs>
  <rect class="cls-2" width="48" height="48"/>
  <g>
    <path class="cls-3" d="m4,18c0-5.66,0-8.49,1.76-10.24,1.76-1.76,4.59-1.76,10.24-1.76h16c5.66,0,8.49,0,10.24,1.76,1.76,1.76,1.76,4.59,1.76,10.24v2c0,5.66,0,8.49-1.76,10.24-1.76,1.76-4.59,1.76-10.24,1.76h-16c-5.66,0-8.49,0-10.24-1.76-1.76-1.76-1.76-4.59-1.76-10.24v-2Z"/>
    <path class="cls-1" d="m24,38v-5m0,5l12,4m-12-4l-12,4"/>
  </g>
  <path d="m25.5,26.99c0,.4-.16.78-.44,1.06-.28.28-.66.44-1.06.44s-.78-.16-1.06-.44c-.28-.28-.44-.66-.44-1.06s.16-.78.44-1.06c.28-.28.66-.44,1.06-.44s.78.16,1.06.44c.28.28.44.66.44,1.06Z"/>
</svg>