<?xml version="1.0" encoding="UTF-8"?>
<svg id="_레이어_1" data-name="레이어 1" xmlns="http://www.w3.org/2000/svg" viewBox="0 0 48 48">
  <defs>
    <style>
      .cls-1 {
        stroke-linecap: round;
      }

      .cls-1, .cls-2, .cls-3 {
        fill: none;
      }

      .cls-1, .cls-3 {
        stroke: #000;
        stroke-width: 2px;
      }
    </style>
  </defs>
  <rect class="cls-2" width="48" height="48"/>
  <g>
    <path d="m14,18c0,.53-.21,1.04-.59,1.41-.38.38-.88.59-1.41.59s-1.04-.21-1.41-.59c-.38-.38-.59-.88-.59-1.41s.21-1.04.59-1.41c.38-.38.88-.59,1.41-.59s1.04.21,1.41.59c.38.38.59.88.59,1.41Zm0,6c0,.53-.21,1.04-.59,1.41-.38.38-.88.59-1.41.59s-1.04-.21-1.41-.59c-.38-.38-.59-.88-.59-1.41s.21-1.04.59-1.41c.38-.38.88-.59,1.41-.59s1.04.21,1.41.59c.38.38.59.88.59,1.41Zm6,0c0,.53-.21,1.04-.59,1.41-.38.38-.88.59-1.41.59s-1.04-.21-1.41-.59c-.38-.38-.59-.88-.59-1.41s.21-1.04.59-1.41c.38-.38.88-.59,1.41-.59s1.04.21,1.41.59c.38.38.59.88.59,1.41Zm0-6c0,.53-.21,1.04-.59,1.41-.38.38-.88.59-1.41.59s-1.04-.21-1.41-.59c-.38-.38-.59-.88-.59-1.41s.21-1.04.59-1.41c.38-.38.88-.59,1.41-.59s1.04.21,1.41.59c.38.38.59.88.59,1.41Zm6,0c0,.53-.21,1.04-.59,1.41-.38.38-.88.59-1.41.59s-1.04-.21-1.41-.59c-.38-.38-.59-.88-.59-1.41s.21-1.04.59-1.41c.38-.38.88-.59,1.41-.59s1.04.21,1.41.59c.38.38.59.88.59,1.41Zm0,6c0,.53-.21,1.04-.59,1.41-.38.38-.88.59-1.41.59s-1.04-.21-1.41-.59c-.38-.38-.59-.88-.59-1.41s.21-1.04.59-1.41c.38-.38.88-.59,1.41-.59s1.04.21,1.41.59c.38.38.59.88.59,1.41Zm6-6c0,.53-.21,1.04-.59,1.41-.38.38-.88.59-1.41.59s-1.04-.21-1.41-.59c-.38-.38-.59-.88-.59-1.41s.21-1.04.59-1.41c.38-.38.88-.59,1.41-.59s1.04.21,1.41.59c.38.38.59.88.59,1.41Zm0,6c0,.53-.21,1.04-.59,1.41-.38.38-.88.59-1.41.59s-1.04-.21-1.41-.59c-.38-.38-.59-.88-.59-1.41s.21-1.04.59-1.41c.38-.38.88-.59,1.41-.59s1.04.21,1.41.59c.38.38.59.88.59,1.41Zm6-6c0,.53-.21,1.04-.59,1.41-.38.38-.88.59-1.41.59s-1.04-.21-1.41-.59c-.38-.38-.59-.88-.59-1.41s.21-1.04.59-1.41c.38-.38.88-.59,1.41-.59s1.04.21,1.41.59c.38.38.59.88.59,1.41Zm0,6c0,.53-.21,1.04-.59,1.41-.38.38-.88.59-1.41.59s-1.04-.21-1.41-.59c-.38-.38-.59-.88-.59-1.41s.21-1.04.59-1.41c.38-.38.88-.59,1.41-.59s1.04.21,1.41.59c.38.38.59.88.59,1.41Z"/>
    <path class="cls-3" d="m4,22c0-5.66,0-8.49,1.76-10.24,1.76-1.76,4.59-1.76,10.24-1.76h16c5.66,0,8.49,0,10.24,1.76,1.76,1.76,1.76,4.59,1.76,10.24v4c0,5.66,0,8.49-1.76,10.24-1.76,1.76-4.59,1.76-10.24,1.76h-16c-5.66,0-8.49,0-10.24-1.76-1.76-1.76-1.76-4.59-1.76-10.24v-4Z"/>
    <path class="cls-1" d="m14,32h20"/>
  </g>
</svg>