<?xml version="1.0" encoding="UTF-8"?>
<svg id="_레이어_1" data-name="레이어 1" xmlns="http://www.w3.org/2000/svg" viewBox="0 0 48 48">
  <defs>
    <style>
      .cls-1 {
        fill: none;
      }
    </style>
  </defs>
  <rect class="cls-1" width="48" height="48"/>
  <path d="m4,24.25C4,13.07,12.95,4,24,4s20,9.07,20,20.25v10.49c0,1.63,0,2.76-.29,3.74-.28.95-.75,1.83-1.38,2.58-.64.75-1.42,1.37-2.31,1.8-.92.44-2.01.61-3.6.87l-.26.04c-.48.08-.97.15-1.45.21-.42.04-.84.05-1.28-.03-.71-.14-1.37-.47-1.92-.94-.55-.47-.96-1.08-1.21-1.76-.14-.41-.22-.84-.23-1.28-.02-.41-.02-.9-.02-1.48v-8.35c0-.85,0-1.58.19-2.21.22-.7.61-1.34,1.15-1.84.54-.5,1.19-.85,1.91-1.02.63-.15,1.35-.09,2.19-.02h.19s.22.03.22.03c1.57.12,2.64.21,3.55.55.64.24,1.23.57,1.77.97v-2.35c0-9.62-7.71-17.42-17.21-17.42S6.79,14.63,6.79,24.25v2.35c.53-.41,1.13-.74,1.77-.97.91-.34,1.98-.43,3.55-.55l.22-.02h.19c.84-.08,1.56-.14,2.19,0,.71.17,1.37.52,1.91,1.02.54.5.93,1.14,1.15,1.84.2.63.19,1.36.19,2.21v8.34c0,.58,0,1.08-.02,1.49-.02.43-.08.85-.23,1.28-.24.68-.66,1.29-1.21,1.76-.55.47-1.21.8-1.91.94-.42.08-.86.09-1.28.03-.4-.04-.89-.12-1.45-.21l-.26-.04c-1.59-.26-2.69-.43-3.6-.87-.89-.43-1.68-1.04-2.31-1.8-.64-.75-1.11-1.63-1.38-2.58-.24-.81-.28-1.71-.28-2.92v-.39s0-10.91,0-10.91Z"/>
</svg>