<?xml version="1.0" encoding="UTF-8"?>
<svg id="_레이어_1" data-name="레이어 1" xmlns="http://www.w3.org/2000/svg" viewBox="0 0 48 48">
  <defs>
    <style>
      .cls-1, .cls-2 {
        fill: none;
      }

      .cls-2 {
        stroke: #000;
        stroke-width: 2px;
      }
    </style>
  </defs>
  <rect class="cls-1" width="48" height="48"/>
  <g>
    <path class="cls-2" d="m8,20c0-7.54,0-11.31,2.34-13.66,2.34-2.34,6.11-2.34,13.66-2.34s11.31,0,13.66,2.34c2.34,2.34,2.34,6.11,2.34,13.66v8c0,7.54,0,11.31-2.34,13.66-2.34,2.34-6.11,2.34-13.66,2.34s-11.31,0-13.66-2.34c-2.34-2.34-2.34-6.11-2.34-13.66v-8Z"/>
    <path class="cls-2" d="m28,15c0,1.06-.42,2.08-1.17,2.83-.75.75-1.77,1.17-2.83,1.17s-2.08-.42-2.83-1.17c-.75-.75-1.17-1.77-1.17-2.83s.42-2.08,1.17-2.83c.75-.75,1.77-1.17,2.83-1.17s2.08.42,2.83,1.17c.75.75,1.17,1.77,1.17,2.83Zm2,16c0,1.59-.63,3.12-1.76,4.24-1.13,1.13-2.65,1.76-4.24,1.76s-3.12-.63-4.24-1.76c-1.13-1.13-1.76-2.65-1.76-4.24s.63-3.12,1.76-4.24c1.13-1.13,2.65-1.76,4.24-1.76s3.12.63,4.24,1.76c1.13,1.13,1.76,2.65,1.76,4.24Z"/>
  </g>
</svg>