<?xml version="1.0" encoding="UTF-8"?>
<svg id="_레이어_1" data-name="레이어 1" xmlns="http://www.w3.org/2000/svg" viewBox="0 0 48 48">
  <defs>
    <style>
      .cls-1 {
        stroke: #000;
        stroke-linecap: round;
        stroke-width: 2px;
      }

      .cls-1, .cls-2 {
        fill: none;
      }
    </style>
  </defs>
  <rect class="cls-2" width="48" height="48"/>
  <g>
    <path class="cls-1" d="m39.29,30.07H8.71m30.59,0v-15.07c0-3.77,0-5.66-1.17-6.83-1.17-1.17-3.06-1.17-6.83-1.17h-14.59c-3.77,0-5.66,0-6.83,1.17s-1.17,3.06-1.17,6.83v15.07m30.59,0l3.49,3.6.18.18c.64.7,1.01,1.62,1.04,2.57v.25c0,.3,0,.45,0,.57-.06.97-.48,1.89-1.16,2.58-.69.69-1.6,1.1-2.58,1.16-.19,0-.38.01-.57,0H8.32c-.3,0-.45,0-.57,0-.97-.06-1.89-.48-2.58-1.16-.69-.69-1.1-1.6-1.16-2.58,0-.13,0-.28,0-.57v-.25c.03-.95.4-1.86,1.04-2.57l.18-.18,3.49-3.6m10.29,5.93h10"/>
    <path d="m25.5,12.5c0,.4-.16.78-.44,1.06-.28.28-.66.44-1.06.44s-.78-.16-1.06-.44c-.28-.28-.44-.66-.44-1.06s.16-.78.44-1.06c.28-.28.66-.44,1.06-.44s.78.16,1.06.44c.28.28.44.66.44,1.06Z"/>
  </g>
</svg>