<?xml version="1.0" encoding="UTF-8"?>
<svg id="_레이어_1" data-name="레이어 1" xmlns="http://www.w3.org/2000/svg" viewBox="0 0 32 32">
  <defs>
    <style>
      .cls-1 {
        fill: none;
      }
    </style>
  </defs>
  <rect class="cls-1" width="32" height="32"/>
  <path d="m16,11.83c-2.29,0-4.17,1.87-4.17,4.17s1.87,4.17,4.17,4.17,4.17-1.87,4.17-4.17-1.87-4.17-4.17-4.17Zm12.49,4.17c0-1.72.02-3.43-.08-5.16-.1-2-.55-3.77-2.02-5.24-1.47-1.47-3.24-1.92-5.24-2.02-1.73-.1-3.43-.08-5.16-.08s-3.43-.02-5.16.08c-2,.1-3.78.55-5.24,2.02-1.47,1.47-1.92,3.24-2.02,5.24-.1,1.73-.08,3.43-.08,5.16s-.02,3.43.08,5.16c.1,2,.55,3.77,2.02,5.24,1.47,1.47,3.24,1.92,5.24,2.02,1.73.1,3.43.08,5.16.08s3.43.02,5.16-.08c2-.1,3.77-.55,5.24-2.02s1.92-3.24,2.02-5.24c.1-1.72.08-3.43.08-5.16Zm-12.49,6.41c-3.55,0-6.41-2.86-6.41-6.41s2.86-6.41,6.41-6.41,6.41,2.86,6.41,6.41-2.86,6.41-6.41,6.41Zm6.67-11.58c-.83,0-1.5-.67-1.5-1.5s.67-1.5,1.5-1.5,1.5.67,1.5,1.5c0,.2-.04.39-.11.57-.08.18-.19.35-.32.49-.14.14-.3.25-.49.32-.18.08-.38.11-.57.11Z"/>
</svg>