<?xml version="1.0" encoding="UTF-8"?>
<svg id="_레이어_1" data-name="레이어 1" xmlns="http://www.w3.org/2000/svg" viewBox="0 0 32 32">
  <defs>
    <style>
      .cls-1 {
        fill: none;
      }
    </style>
  </defs>
  <rect class="cls-1" width="32" height="32"/>
  <path d="m16.33,5.33c.71,0,2.49.02,4.39.1l.67.03c1.91.09,3.81.24,4.75.51,1.26.35,2.25,1.39,2.58,2.7.53,2.08.6,6.14.61,7.12v.2s0,.23,0,.23c0,.98-.08,5.04-.61,7.12-.34,1.31-1.33,2.35-2.58,2.7-.95.26-2.85.42-4.75.51l-.67.03c-1.89.07-3.67.09-4.39.1h-.31s-.34,0-.34,0c-1.51,0-7.81-.08-9.81-.63-1.26-.35-2.25-1.39-2.58-2.7-.53-2.08-.6-6.14-.61-7.12v-.43c0-.98.07-5.04.61-7.12.34-1.31,1.33-2.35,2.59-2.69,2-.56,8.31-.63,9.81-.63h.65Zm-2.99,6v9.33l8-4.67-8-4.67Z"/>
</svg>